<svg width="15" height="12" viewBox="0 0 15 12" fill="none" xmlns="http://www.w3.org/2000/svg">
<path fill-rule="evenodd" clip-rule="evenodd" d="M14.501 0H0.500977C0.368368 0 0.241191 0.052193 0.147423 0.145097C0.0536551 0.238001 0.000976562 0.364006 0.000976562 0.495392V11.394C0.000976562 11.5254 0.0536551 11.6514 0.147423 11.7443C0.241191 11.8372 0.368368 11.8894 0.500977 11.8894H14.501C14.6336 11.8894 14.7608 11.8372 14.8545 11.7443C14.9483 11.6514 15.001 11.5254 15.001 11.394V0.495392C15.001 0.364006 14.9483 0.238001 14.8545 0.145097C14.7608 0.052193 14.6336 0 14.501 0ZM1.00098 10.8986V0.990783H14.001V10.8986H1.00098Z" fill="white"/>
<path fill-rule="evenodd" clip-rule="evenodd" d="M14.8249 0.87189L7.77987 6.81659C7.68919 6.8932 7.57387 6.9352 7.45469 6.93502C7.33551 6.93484 7.22032 6.89249 7.12987 6.8156L0.173874 0.8709C0.0964405 0.804883 0.0412741 0.716951 0.0157981 0.618936C-0.00967793 0.520921 -0.00424102 0.417526 0.0313771 0.322664C0.0669951 0.227803 0.131085 0.146027 0.215023 0.0883399C0.298961 0.0306531 0.398719 -0.000176085 0.500874 7.56553e-07H14.5009C14.603 0.00019513 14.7026 0.0313712 14.7863 0.0893358C14.87 0.1473 14.9338 0.229274 14.9691 0.32423C15.0044 0.419186 15.0095 0.522572 14.9837 0.620481C14.9579 0.71839 14.9025 0.806126 14.8249 0.87189ZM13.1429 0.990784H1.84587L7.45787 5.78717L13.1429 0.990784Z" fill="white"/>
</svg>
