<svg width="40" height="38" viewBox="0 0 40 38" fill="none" xmlns="http://www.w3.org/2000/svg">
<path d="M8.45833 4.4168C8.45778 5.52187 8.01826 6.58145 7.23647 7.36247C6.45468 8.14348 5.39465 8.58193 4.28958 8.58138C3.18451 8.58083 2.12493 8.14131 1.34392 7.35952C0.562905 6.57773 0.124448 5.5177 0.125001 4.41263C0.125553 3.30756 0.56507 2.24797 1.34686 1.46696C2.12865 0.685951 3.18868 0.247495 4.29375 0.248047C5.39882 0.2486 6.45841 0.688117 7.23942 1.46991C8.02043 2.2517 8.45889 3.31173 8.45833 4.4168ZM8.58333 11.6668H0.25V37.7501H8.58333V11.6668ZM21.75 11.6668H13.4583V37.7501H21.6667V24.0626C21.6667 16.4376 31.6042 15.7293 31.6042 24.0626V37.7501H39.8333V21.2293C39.8333 8.37513 25.125 8.8543 21.6667 15.1668L21.75 11.6668Z" fill="white"/>
</svg>
