<svg width="17" height="20" viewBox="0 0 17 20" fill="none" xmlns="http://www.w3.org/2000/svg">
<path d="M8.5 0C10.7543 0 12.9163 0.894736 14.5104 2.48737C16.1045 4.08001 17 6.2401 17 8.49243C17 12.0083 14.3178 15.6921 9.06667 19.6269C8.90319 19.7494 8.70435 19.8157 8.5 19.8157C8.29565 19.8157 8.09681 19.7494 7.93333 19.6269C2.68222 15.6921 0 12.0083 0 8.49243C0 6.2401 0.895533 4.08001 2.48959 2.48737C4.08365 0.894736 6.24566 0 8.5 0ZM8.5 1.88721C6.74662 1.88721 5.06506 2.58311 3.82524 3.82183C2.58541 5.06055 1.88889 6.74061 1.88889 8.49243C1.88889 11.0496 3.88922 13.9993 7.97867 17.2736L8.5 17.685L9.02133 17.2736C13.1108 13.9993 15.1111 11.0496 15.1111 8.49243C15.1111 6.74061 14.4146 5.06055 13.1748 3.82183C11.9349 2.58311 10.2534 1.88721 8.5 1.88721ZM8.5 6.60522C9.00096 6.60522 9.48141 6.80405 9.83565 7.15797C10.1899 7.51189 10.3889 7.99191 10.3889 8.49243C10.3889 8.99295 10.1899 9.47297 9.83565 9.82689C9.48141 10.1808 9.00096 10.3796 8.5 10.3796C7.99904 10.3796 7.51859 10.1808 7.16435 9.82689C6.81012 9.47297 6.61111 8.99295 6.61111 8.49243C6.61111 7.99191 6.81012 7.51189 7.16435 7.15797C7.51859 6.80405 7.99904 6.60522 8.5 6.60522Z" fill="white"/>
</svg>
