<svg width="42" height="37" viewBox="0 0 42 37" fill="none" xmlns="http://www.w3.org/2000/svg">
<path fill-rule="evenodd" clip-rule="evenodd" d="M35.5063 34.2289V34.2247L35.5438 34.1351L41.7917 2.63514V2.53514C41.7917 1.74972 41.5 1.06431 40.8709 0.65389C40.3188 0.293473 39.6834 0.268473 39.2375 0.301807C38.8225 0.33934 38.413 0.423195 38.0167 0.551807C37.8477 0.606296 37.6809 0.667455 37.5167 0.73514L37.4896 0.745556L2.65627 14.4101L2.64585 14.4143C2.53995 14.4505 2.4363 14.4929 2.33544 14.5414C2.08771 14.6527 1.85002 14.7851 1.62502 14.9372C1.1771 15.2456 0.325021 15.9706 0.468771 17.1206C0.587521 18.0747 1.24377 18.6789 1.68752 18.9935C1.94945 19.177 2.23105 19.3308 2.5271 19.4518L2.59377 19.481L2.6146 19.4872L2.62919 19.4935L8.72502 21.5456C8.70419 21.9268 8.74169 22.3164 8.84377 22.7018L11.8959 34.2831C12.0626 34.9143 12.4229 35.4776 12.9261 35.8936C13.4293 36.3096 14.0503 36.5576 14.7016 36.6026C15.353 36.6477 16.0022 36.4875 16.5579 36.1448C17.1136 35.802 17.548 35.2937 17.8 34.6914L22.5667 29.5956L30.7521 35.8706L30.8688 35.9206C31.6125 36.2456 32.3063 36.3476 32.9417 36.2622C33.5771 36.1747 34.0813 35.9081 34.4604 35.606C34.899 35.2504 35.2485 34.7974 35.4813 34.2831L35.4979 34.2476L35.5042 34.2351L35.5063 34.2289ZM11.8646 21.906C11.8308 21.7775 11.8388 21.6415 11.8875 21.5179C11.9362 21.3943 12.0231 21.2894 12.1354 21.2185L32.8042 8.09347C32.8042 8.09347 34.0209 7.35389 33.9771 8.09347C33.9771 8.09347 34.1938 8.22264 33.5417 8.82889C32.925 9.40597 18.8104 23.0331 17.3813 24.4122C17.3018 24.4894 17.2461 24.5877 17.2209 24.6956L14.9167 33.4872L11.8646 21.9039V21.906Z" fill="white"/>
</svg>
