<svg width="21" height="22" viewBox="0 0 21 22" fill="none" xmlns="http://www.w3.org/2000/svg">
<path d="M7.50008 20.6042C8.50008 20.9063 9.5105 21.0833 10.5834 21.0833C13.3461 21.0833 15.9956 19.9859 17.9491 18.0324C19.9026 16.0789 21.0001 13.4293 21.0001 10.6667C21.0001 9.29873 20.7306 7.94419 20.2072 6.68038C19.6837 5.41657 18.9164 4.26825 17.9491 3.30097C16.9818 2.33369 15.8335 1.56641 14.5697 1.04292C13.3059 0.519435 11.9514 0.25 10.5834 0.25C9.21548 0.25 7.86094 0.519435 6.59713 1.04292C5.33332 1.56641 4.185 2.33369 3.21772 3.30097C1.26422 5.25448 0.166748 7.904 0.166748 10.6667C0.166748 15.0938 2.948 18.8958 6.87508 20.3958C6.78133 19.5833 6.68758 18.2396 6.87508 17.3125L8.073 12.1667C8.073 12.1667 7.77092 11.5625 7.77092 10.6042C7.77092 9.16667 8.66675 8.09375 9.68758 8.09375C10.5834 8.09375 11.0001 8.75 11.0001 9.59375C11.0001 10.4896 10.4063 11.7708 10.1042 13C9.92717 14.0208 10.6459 14.9167 11.6876 14.9167C13.5417 14.9167 14.9792 12.9375 14.9792 10.1458C14.9792 7.64583 13.1876 5.9375 10.6147 5.9375C7.67717 5.9375 5.948 8.125 5.948 10.4271C5.948 11.3229 6.23967 12.2292 6.71883 12.8229C6.81258 12.8854 6.81258 12.9688 6.78133 13.125L6.47925 14.2604C6.47925 14.4375 6.36467 14.5 6.18758 14.375C4.85425 13.7917 4.08342 11.8958 4.08342 10.3646C4.08342 7.07292 6.41675 4.08333 10.9167 4.08333C14.5001 4.08333 17.2917 6.65625 17.2917 10.0729C17.2917 13.6563 15.073 16.5313 11.8959 16.5313C10.8855 16.5313 9.89592 15.9896 9.54175 15.3542L8.84383 17.8229C8.60425 18.7188 7.948 19.9167 7.50008 20.6354V20.6042Z" fill="white"/>
</svg>
