<svg width="21" height="22" viewBox="0 0 21 22" fill="none" xmlns="http://www.w3.org/2000/svg">
<path d="M11.6541 0.250793C12.4143 0.247876 13.1744 0.255516 13.9343 0.27371L14.1364 0.281002C14.3697 0.289335 14.5999 0.299752 14.8781 0.312252C15.9864 0.364335 16.7427 0.539335 17.4062 0.796627C18.0937 1.06121 18.6729 1.41954 19.252 1.99871C19.7816 2.51913 20.1914 3.14865 20.4531 3.8435C20.7104 4.50704 20.8854 5.26434 20.9375 6.37267C20.95 6.64975 20.9604 6.881 20.9687 7.11434L20.9749 7.31642C20.9935 8.07599 21.0014 8.83579 20.9989 9.59559L21 10.3727V11.7373C21.0025 12.4974 20.9945 13.2575 20.976 14.0175L20.9697 14.2195C20.9614 14.4529 20.951 14.6831 20.9385 14.9612C20.8864 16.0695 20.7093 16.8258 20.4531 17.4893C20.1923 18.1849 19.7823 18.815 19.252 19.3352C18.7312 19.8647 18.1013 20.2745 17.4062 20.5362C16.7427 20.7935 15.9864 20.9685 14.8781 21.0206C14.5999 21.0331 14.3697 21.0435 14.1364 21.0518L13.9343 21.0581C13.1744 21.0766 12.4143 21.0846 11.6541 21.082L10.877 21.0831H9.51349C8.75335 21.0857 7.99321 21.0777 7.23328 21.0591L7.0312 21.0529C6.78392 21.0439 6.53669 21.0335 6.28953 21.0216C5.1812 20.9695 4.42495 20.7925 3.76037 20.5362C3.06525 20.2751 2.43561 19.8652 1.91557 19.3352C1.38541 18.8146 0.975184 18.1847 0.713492 17.4893C0.4562 16.8258 0.2812 16.0695 0.229117 14.9612C0.217515 14.714 0.207099 14.4668 0.197867 14.2195L0.192658 14.0175C0.173454 13.2575 0.164772 12.4974 0.166617 11.7373V9.59559C0.163709 8.83579 0.171349 8.076 0.189533 7.31642L0.196825 7.11434C0.205158 6.881 0.215575 6.64975 0.228075 6.37267C0.280158 5.26329 0.455158 4.50809 0.71245 3.8435C0.974296 3.14831 1.38533 2.51897 1.91662 1.99975C2.4363 1.46929 3.06553 1.05868 3.76037 0.796627C4.42495 0.539335 5.18016 0.364335 6.28953 0.312252L7.0312 0.281002L7.23328 0.275794C7.99285 0.256599 8.75264 0.247917 9.51245 0.249752L11.6541 0.250793ZM10.5833 5.45913C9.89319 5.44937 9.20803 5.57686 8.56763 5.8342C7.92724 6.09153 7.34437 6.47358 6.85291 6.95814C6.36145 7.4427 5.9712 8.0201 5.70483 8.6568C5.43846 9.29349 5.30129 9.97677 5.30129 10.6669C5.30129 11.3571 5.43846 12.0404 5.70483 12.6771C5.9712 13.3138 6.36145 13.8912 6.85291 14.3757C7.34437 14.8603 7.92724 15.2423 8.56763 15.4997C9.20803 15.757 9.89319 15.8845 10.5833 15.8748C11.9646 15.8748 13.2894 15.326 14.2661 14.3493C15.2429 13.3725 15.7916 12.0478 15.7916 10.6664C15.7916 9.28508 15.2429 7.96032 14.2661 6.98357C13.2894 6.00682 11.9646 5.45913 10.5833 5.45913ZM10.5833 7.54246C10.9984 7.53481 11.4109 7.60996 11.7966 7.76351C12.1824 7.91706 12.5336 8.14594 12.8299 8.43678C13.1262 8.72761 13.3616 9.07458 13.5223 9.4574C13.683 9.84022 13.7658 10.2512 13.7659 10.6664C13.7659 11.0816 13.6833 11.4926 13.5227 11.8755C13.3621 12.2584 13.1269 12.6054 12.8307 12.8964C12.5345 13.1873 12.1833 13.4163 11.7976 13.57C11.4119 13.7236 10.9994 13.7989 10.5843 13.7914C9.75552 13.7914 8.96067 13.4622 8.37462 12.8761C7.78856 12.2901 7.45933 11.4952 7.45933 10.6664C7.45933 9.83762 7.78856 9.04276 8.37462 8.45671C8.96067 7.87066 9.75552 7.54142 10.5843 7.54142L10.5833 7.54246ZM16.052 3.89663C15.716 3.91008 15.3982 4.05303 15.1652 4.29556C14.9322 4.53808 14.802 4.86135 14.802 5.19767C14.802 5.53399 14.9322 5.85726 15.1652 6.09978C15.3982 6.3423 15.716 6.48526 16.052 6.49871C16.3974 6.49871 16.7286 6.36153 16.9727 6.11734C17.2169 5.87315 17.3541 5.54196 17.3541 5.19663C17.3541 4.85129 17.2169 4.5201 16.9727 4.27592C16.7286 4.03173 16.3974 3.89454 16.052 3.89454V3.89663Z" fill="white"/>
</svg>
