<svg width="26" height="22" viewBox="0 0 26 22" fill="none" xmlns="http://www.w3.org/2000/svg">
<path d="M25.0835 2.68245C24.1439 3.10305 23.1503 3.3811 22.1335 3.50794C23.2062 2.84667 24.0101 1.80637 24.396 0.580024C23.3879 1.19922 22.2844 1.63549 21.1335 1.86985C20.3642 1.00898 19.3397 0.435945 18.2208 0.240607C17.1018 0.0452687 15.9517 0.238681 14.9507 0.79051C13.9498 1.34234 13.1547 2.22137 12.69 3.28974C12.2254 4.35812 12.1176 5.5554 12.3835 6.69381C10.3453 6.58744 8.35155 6.03981 6.53181 5.08651C4.71208 4.13321 3.10705 2.79555 1.821 1.16045C1.36992 1.97326 1.1329 2.89375 1.1335 3.83039C1.1319 4.70023 1.33877 5.55698 1.73569 6.32436C2.13261 7.09174 2.70727 7.74594 3.4085 8.22871C2.59347 8.20583 1.79585 7.98016 1.0835 7.5709V7.63539C1.0896 8.85414 1.50349 10.0333 2.25514 10.9734C3.00679 11.9135 4.05007 12.5569 5.2085 12.7947C4.76257 12.9347 4.29959 13.0086 3.8335 13.014C3.51086 13.0101 3.18902 12.9799 2.871 12.9237C3.20088 13.9721 3.83927 14.8883 4.69734 15.5448C5.5554 16.2014 6.59047 16.5656 7.6585 16.5868C5.855 18.0511 3.62835 18.8503 1.3335 18.8569C0.915665 18.8583 0.498166 18.8325 0.0834961 18.7795C2.42653 20.3405 5.15701 21.1692 7.946 21.1657C9.87061 21.1863 11.7799 20.811 13.5624 20.0617C15.3449 19.3124 16.9648 18.2041 18.3275 16.8016C19.6902 15.399 20.7685 13.7303 21.4992 11.893C22.2299 10.0557 22.5985 8.08648 22.5835 6.10049V5.41688C23.5644 4.66209 24.4103 3.73678 25.0835 2.68245Z" fill="white"/>
</svg>
